<svg class="bottom-shape" viewBox="0 0 137 143.92" xmlns="http://www.w3.org/2000/svg"><g data-name="Layer 2"><g data-name="Layer 1"><path class="cls-1" transform="translate(-.86 -.5)" d="M136.86,144.42H1.86a20.86,20.86,0,0,1,.83-3.83c6.72-15.73,12.51-31.95,20.45-47C39.64,62.2,62.38,36.2,93.4,18.19A136.68,136.68,0,0,1,136.86,1.66Z" fill="#4154f1"></path><path class="cls-2" transform="translate(-.86 -.5)" d="M136.86,144.42V1.66A136.68,136.68,0,0,0,93.4,18.19c-31,18-53.76,44-70.26,75.36-7.94,15.09-13.73,31.31-20.45,47a20.86,20.86,0,0,0-.83,3.83,17.55,17.55,0,0,1-1-4Q.83,70.5.86.5h137V11.58q0,64.43,0,128.85A17.55,17.55,0,0,1,136.86,144.42Z" fill="transparent"></path></g></g></svg>